<?xml version="1.0" encoding="UTF-8"?>
<svg xmlns="http://www.w3.org/2000/svg" xmlns:xlink="http://www.w3.org/1999/xlink" viewBox="0 0 1080 1080">
  <defs>
    <style>
      .cls-1 {
        fill: none;
      }

      .cls-2 {
        isolation: isolate;
      }

      .cls-3 {
        clip-path: url(#clippath-1);
      }

      .cls-4 {
        clip-path: url(#clippath-3);
      }

      .cls-5 {
        clip-path: url(#clippath-2);
      }

      .cls-6 {
        fill: #fff;
      }

      .cls-7 {
        mix-blend-mode: overlay;
      }

      .cls-8 {
        fill: #2d272b;
      }

      .cls-9 {
        fill: #ee4405;
      }

      .cls-10 {
        clip-path: url(#clippath);
      }
    </style>
    <clipPath id="clippath">
      <path class="cls-1" d="M1182.48,451.87s-42.53-165.53,41.37-144.59c97.01,24.21,53.82,41.76,178.6,92.64,124.77,50.88,201.7,41.89,220.82,44.28,19.11,2.39,97.74-8.64,97.74-8.64l67.41-6.95s93.66,1.47,115.81,23.47c22.15,22,43.24,17.23,43.24,139.33s-65.13,204.68-65.13,204.68l-124,95.04-575.86-439.26Z"/>
    </clipPath>
    <clipPath id="clippath-1">
      <rect class="cls-1" x="984.77" y="-46.2" width="1122.99" height="1122.99"/>
    </clipPath>
    <clipPath id="clippath-2">
      <path class="cls-1" d="M1744.77,896.34c-21.43,10.49-97.65,20.85-97.65,20.85,0,0-65.15,5.03-117.14-1.6-51.99-6.63-91.82-20.72-110.39-27.11s-63.18-27.55-63.18-27.55c-29.82-10.32-89.13-56.4-113.4-76.69-24.26-20.29-28.81-43.48-40.46-56.03-11.64-12.54-30.93-70.88-48.85-128.31-17.92-57.43-7.14-91.48-7.14-91.48,0,0,5.19-13.1,18.25-13.57,13.06-.48,49.65,31.25,84.62,60.11,34.97,28.87,71.8,56.71,201.16,91.66,129.36,34.95,244.53,5.65,244.53,5.65,0,0,29.43-6.19,49.66,8.27,20.23,14.46,20.4,46.18,24.96,93.88,4.56,47.7-11.42,136.71-11.42,136.71l-13.57,5.21Z"/>
    </clipPath>
    <clipPath id="clippath-3">
      <rect class="cls-1" x="984.77" y="-46.2" width="1122.99" height="1122.99"/>
    </clipPath>
  </defs>
  <g class="cls-2">
    <g id="Capa_1" data-name="Capa 1">
      <g>
        <g class="cls-7">
          <g class="cls-10">
            <g class="cls-3">
              <path class="cls-8" d="M900.28,120.22l91.71,61.36c12.99,8.69,28.66-6.5,20.36-19.75l-53.94-86.09,66.27-22.64c11.39-3.89,13.36-19.15,3.35-25.82l-115.27-76.68c-13.01-8.65-28.63,6.54-20.35,19.79l65.99,105.36-54.75,18.7c-11.38,3.89-13.38,19.1-3.38,25.78Z"/>
              <path class="cls-8" d="M855.36,344.82l91.71,61.36c12.99,8.69,28.66-6.5,20.36-19.75l-53.94-86.09,66.27-22.64c11.39-3.89,13.36-19.15,3.35-25.82l-115.27-76.68c-13.01-8.65-28.63,6.54-20.35,19.79l65.99,105.36-54.75,18.7c-11.38,3.89-13.38,19.1-3.38,25.78Z"/>
              <path class="cls-8" d="M1079.96,344.82l91.71,61.36c12.99,8.69,28.66-6.5,20.36-19.75l-53.94-86.09,66.27-22.64c11.39-3.89,13.36-19.15,3.35-25.82l-115.27-76.68c-13.01-8.65-28.63,6.54-20.35,19.79l65.99,105.36-54.75,18.7c-11.38,3.89-13.38,19.1-3.38,25.78Z"/>
              <path class="cls-8" d="M1035.04,569.42l91.71,61.36c12.99,8.69,28.66-6.5,20.36-19.75l-53.94-86.09,66.27-22.64c11.39-3.89,13.36-19.15,3.35-25.82l-115.27-76.68c-13.01-8.65-28.63,6.54-20.35,19.79l65.99,105.36-54.75,18.7c-11.38,3.89-13.38,19.1-3.38,25.78Z"/>
              <path class="cls-8" d="M990.12,794.02l91.71,61.36c12.99,8.69,28.66-6.5,20.36-19.75l-53.94-86.09,66.27-22.64c11.39-3.89,13.36-19.15,3.35-25.82l-115.27-76.68c-13.01-8.65-28.63,6.54-20.35,19.79l65.99,105.36-54.75,18.7c-11.38,3.89-13.38,19.1-3.38,25.78Z"/>
              <path class="cls-8" d="M945.2,1018.61l91.71,61.36c12.99,8.69,28.66-6.5,20.36-19.75l-53.94-86.09,66.27-22.64c11.39-3.89,13.36-19.15,3.35-25.82l-115.27-76.68c-13.01-8.65-28.63,6.54-20.35,19.79l65.99,105.36-54.75,18.7c-11.38,3.89-13.38,19.1-3.38,25.78Z"/>
              <path class="cls-8" d="M900.28,1243.21l91.71,61.36c12.99,8.69,28.66-6.5,20.36-19.75l-53.94-86.09,66.27-22.64c11.39-3.89,13.36-19.15,3.35-25.82l-115.27-76.68c-13.01-8.65-28.63,6.54-20.35,19.79l65.99,105.36-54.75,18.7c-11.38,3.89-13.38,19.1-3.38,25.78Z"/>
            </g>
          </g>
        </g>
        <g class="cls-7">
          <g class="cls-5">
            <g class="cls-4">
              <path class="cls-8" d="M900.28,120.22l91.71,61.36c12.99,8.69,28.66-6.5,20.36-19.75l-53.94-86.09,66.27-22.64c11.39-3.89,13.36-19.15,3.35-25.82l-115.27-76.68c-13.01-8.65-28.63,6.54-20.35,19.79l65.99,105.36-54.75,18.7c-11.38,3.89-13.38,19.1-3.38,25.78Z"/>
              <path class="cls-8" d="M855.36,344.82l91.71,61.36c12.99,8.69,28.66-6.5,20.36-19.75l-53.94-86.09,66.27-22.64c11.39-3.89,13.36-19.15,3.35-25.82l-115.27-76.68c-13.01-8.65-28.63,6.54-20.35,19.79l65.99,105.36-54.75,18.7c-11.38,3.89-13.38,19.1-3.38,25.78Z"/>
              <path class="cls-8" d="M1079.96,344.82l91.71,61.36c12.99,8.69,28.66-6.5,20.36-19.75l-53.94-86.09,66.27-22.64c11.39-3.89,13.36-19.15,3.35-25.82l-115.27-76.68c-13.01-8.65-28.63,6.54-20.35,19.79l65.99,105.36-54.75,18.7c-11.38,3.89-13.38,19.1-3.38,25.78Z"/>
              <path class="cls-8" d="M1035.04,569.42l91.71,61.36c12.99,8.69,28.66-6.5,20.36-19.75l-53.94-86.09,66.27-22.64c11.39-3.89,13.36-19.15,3.35-25.82l-115.27-76.68c-13.01-8.65-28.63,6.54-20.35,19.79l65.99,105.36-54.75,18.7c-11.38,3.89-13.38,19.1-3.38,25.78Z"/>
              <path class="cls-8" d="M990.12,794.02l91.71,61.36c12.99,8.69,28.66-6.5,20.36-19.75l-53.94-86.09,66.27-22.64c11.39-3.89,13.36-19.15,3.35-25.82l-115.27-76.68c-13.01-8.65-28.63,6.54-20.35,19.79l65.99,105.36-54.75,18.7c-11.38,3.89-13.38,19.1-3.38,25.78Z"/>
              <path class="cls-8" d="M945.2,1018.61l91.71,61.36c12.99,8.69,28.66-6.5,20.36-19.75l-53.94-86.09,66.27-22.64c11.39-3.89,13.36-19.15,3.35-25.82l-115.27-76.68c-13.01-8.65-28.63,6.54-20.35,19.79l65.99,105.36-54.75,18.7c-11.38,3.89-13.38,19.1-3.38,25.78Z"/>
              <path class="cls-8" d="M900.28,1243.21l91.71,61.36c12.99,8.69,28.66-6.5,20.36-19.75l-53.94-86.09,66.27-22.64c11.39-3.89,13.36-19.15,3.35-25.82l-115.27-76.68c-13.01-8.65-28.63,6.54-20.35,19.79l65.99,105.36-54.75,18.7c-11.38,3.89-13.38,19.1-3.38,25.78Z"/>
            </g>
          </g>
        </g>
      </g>
      <g>
        <path d="M431.5,888.5l-84.72,75.75,61.23,75.75,539.58-95.42c28.84-5.1,29.84-46.11,1.29-52.62l-517.38-3.46Z"/>
        <g>
          <g>
            <path class="cls-9" d="M484.62,1005.23l241.61-335.9c26.3-36.57,1.73-89.27-41.62-89.27H223.03c-43.41,0-67.97-52.84-41.54-89.39L485.7,70.06c34.33-47.46,105.39-11.73,92.51,46.51l-186.19,842.26c-12.89,58.32,58.34,94.02,92.6,46.4Z"/>
            <path d="M443.85,1035.4c-8.03,0-16.26-1.75-24.31-5.35-23.3-10.42-43.24-37.01-35.3-72.95l81.58-369.08h-242.8c-22.57,0-42.43-12.48-53.1-33.38-11.38-22.26-9.42-48.57,5.11-68.66L479.24,65.38c17.29-23.89,45.36-31.75,71.53-20.01,23.25,10.44,43.16,37.03,35.23,72.91l-100.32,453.8h198.94c22.54,0,42.38,12.45,53.06,33.3,11.39,22.22,9.48,48.5-4.97,68.59l-241.61,335.9c-11.95,16.62-29.11,25.52-47.24,25.52ZM482.16,588.03l-82.35,372.52c-6.01,27.17,8.85,47.17,26.24,54.95,15.13,6.76,36.76,6.4,52.1-14.93l241.61-335.9c10.95-15.22,12.38-35.15,3.73-52.01-7.9-15.42-22.44-24.63-38.88-24.63h-202.46ZM526.29,56.01c-11.69,0-24.21,5-34.14,18.72L187.95,495.34c-11,15.21-12.46,35.16-3.83,52.06,7.9,15.46,22.44,24.68,38.91,24.68h246.32l101.07-457.24c6-27.13-8.83-47.14-26.19-54.93-5.35-2.4-11.53-3.91-17.95-3.91Z"/>
          </g>
          <path class="cls-9" d="M432.27,1005.23l241.61-335.9c26.3-36.57,1.73-89.27-41.62-89.27H170.68c-43.41,0-67.97-52.84-41.54-89.39L433.35,70.06c34.33-47.46,105.39-11.73,92.51,46.51l-186.19,842.26c-12.89,58.32,58.34,94.02,92.6,46.4Z"/>
          <g>
            <line class="cls-9" x1="468.68" y1="48.34" x2="537.87" y2="48.9"/>
            <rect x="495.31" y="14.02" width="15.94" height="69.19" transform="translate(450.59 551.49) rotate(-89.54)"/>
          </g>
          <g>
            <line class="cls-9" x1="384.94" y1="1026.78" x2="454.13" y2="1027.34"/>
            <rect x="411.57" y="992.46" width="15.94" height="69.19" transform="translate(-610.88 1438.28) rotate(-89.54)"/>
          </g>
          <path d="M504.84,448.47c-36.43,34.3-51.02-6.02-51.02-6.02l-30.9,139.79h52.35l29.57-133.77Z"/>
          <g>
            <path class="cls-6" d="M431.5,552.42l-5.62,25.54h-114.19c-71.82-72.88-77.8-169.51-66.52-246.42l109.24-151.06c-26.74,75.31-73.73,264.31,77.08,371.94Z"/>
            <path class="cls-6" d="M590.32,786.85l-77.76,108.07c-4.7-63.68-26.46-157.36-104.46-236.54l17.78-80.41h39.74c77.84,64.71,111.16,143.73,124.71,208.88Z"/>
          </g>
          <path d="M391.5,1035.4c-8.03,0-16.26-1.75-24.31-5.35-23.29-10.42-43.24-37.01-35.3-72.95l81.59-369.08h-242.8c-22.58,0-42.43-12.48-53.1-33.38-11.37-22.26-9.42-48.57,5.11-68.66L426.89,65.38c17.28-23.9,45.37-31.75,71.53-20.01,23.25,10.44,43.16,37.03,35.23,72.91l-100.32,453.8h198.94c22.54,0,42.38,12.45,53.06,33.3,11.39,22.22,9.48,48.5-4.97,68.59l-241.61,335.9c-11.95,16.62-29.11,25.52-47.24,25.52ZM429.8,588.03l-82.35,372.52c-6.01,27.17,8.85,47.17,26.24,54.95,15.13,6.76,36.76,6.4,52.1-14.93h0l241.61-335.9c10.94-15.22,12.37-35.15,3.73-52.02-7.9-15.42-22.44-24.63-38.88-24.63h-202.46ZM473.94,56.01c-11.69,0-24.21,5-34.14,18.72L135.6,495.34c-11,15.21-12.46,35.15-3.83,52.06,7.9,15.46,22.44,24.68,38.91,24.68h246.32l101.07-457.24c6-27.13-8.83-47.14-26.19-54.93-5.35-2.4-11.53-3.91-17.95-3.91Z"/>
        </g>
      </g>
    </g>
  </g>
</svg>